<svg width="39" height="38" viewBox="0 0 39 38" fill="none" xmlns="http://www.w3.org/2000/svg">
<path d="M40.6438 38.3689L3.2978 0.833344L0.833344 3.2978L11.8286 14.2931L11.639 14.6722C10.8807 13.7243 9.7433 12.966 8.60586 12.5869C6.71012 12.0182 3.10823 12.2078 2.5395 13.7243C1.97078 15.2409 5.00396 17.5158 6.89969 17.895C7.84756 18.0845 9.17458 18.0845 10.1224 17.895V20.3594C10.1224 22.8239 11.0703 25.2883 12.3973 27.1841C11.0703 28.5111 10.1224 30.0277 10.1224 31.7338C10.1224 35.9044 15.2409 39.3168 21.4969 39.3168C26.2362 39.3168 30.4068 37.421 32.113 34.5774L38.3689 40.8333L40.6438 38.3689ZM16.5679 18.8428C15.9992 19.222 15.8096 19.7907 15.8096 20.3594C15.8096 21.4969 16.5679 22.2551 17.7054 22.2551C18.2741 22.2551 18.8428 22.0656 19.222 21.4969L21.876 24.1509H21.6864C19.6011 24.1509 17.5158 24.53 15.8096 25.2883C14.4826 23.9613 13.9139 22.2551 13.9139 20.3594C13.9139 19.222 14.1035 18.0845 14.6722 17.1367L16.5679 18.8428M29.0798 31.7338C29.0798 33.8191 25.6675 35.5253 21.4969 35.5253C17.3262 35.5253 13.9139 33.8191 13.9139 31.7338C13.9139 29.6485 17.3262 27.9424 21.4969 27.9424C23.3926 27.9424 25.0987 28.3215 26.4258 28.8902L29.0798 31.5442V31.7338ZM17.1367 9.93287L13.5348 6.33097C14.4826 5.00396 15.8096 3.86652 17.7054 3.2978L17.5158 3.48737C16.9471 4.43524 15.6201 7.08927 17.1367 9.93287M20.1698 12.966L17.1367 9.93287C18.4637 9.36415 19.9803 8.985 21.4969 8.985C23.0134 8.985 24.53 9.36415 25.857 9.93287C27.3736 7.08927 25.857 4.43524 25.4779 3.67695L25.2883 3.2978C30.9755 5.19353 31.3547 10.8807 30.2172 13.1556L31.3547 14.6722C32.113 13.7243 33.2504 12.966 34.3878 12.5869C36.2836 12.0182 39.8855 12.2078 40.4542 13.7243C41.0229 15.2409 37.9897 17.5158 36.094 17.895C35.1461 18.0845 33.8191 18.0845 32.8713 17.895V20.3594C32.8713 21.876 32.4921 23.3926 31.9234 24.7196L28.8902 21.6864C28.8902 21.3073 29.0798 20.7386 29.0798 20.3594C29.0798 16.1888 25.6675 12.7765 21.4969 12.7765C21.1177 12.7765 20.549 12.7765 20.1698 12.966M25.2883 32.6817C25.2883 33.2504 24.9092 33.6296 24.3405 33.6296C23.7717 33.6296 23.3926 33.2504 23.3926 32.6817C23.3926 32.113 23.7717 31.7338 24.3405 31.7338C24.9092 31.7338 25.2883 32.113 25.2883 32.6817ZM19.6011 32.6817C19.6011 33.2504 19.222 33.6296 18.6532 33.6296C18.0845 33.6296 17.7054 33.2504 17.7054 32.6817C17.7054 32.113 18.0845 31.7338 18.6532 31.7338C19.222 31.7338 19.6011 32.113 19.6011 32.6817Z" fill="black"/>
</svg>
