<svg width="33" height="40" viewBox="0 0 33 40" fill="none" xmlns="http://www.w3.org/2000/svg">
<path d="M17.8735 0C16.6891 2.78152 15.5047 5.56303 15.5227 8.27277C15.5406 9.34948 15.738 10.3903 16.0431 11.5029C15.9029 11.2215 15.7409 10.9515 15.5585 10.6954C14.0511 8.59578 11.0722 6.80126 8.07537 5.00673C8.07537 6.44235 8.07537 7.86003 8.39838 9.24181L19.7398 20.5832V17.0301C22.4316 15.415 24.9798 13.764 26.3257 11.8798C27.8152 9.79811 27.8152 7.39345 27.8152 5.00673C24.8183 6.80126 21.8394 8.59578 20.332 10.6954C20.1525 10.9466 20.009 11.1978 19.8654 11.4491C20.1884 10.3185 20.3858 9.17003 20.3679 8.03948C20.3499 5.32974 19.1117 2.6559 17.8735 0M2.29699 7.69852L0 9.97757L8.3266 18.3042C8.524 19.3629 8.88291 20.3499 9.56483 21.301C10.9107 23.1853 13.4589 24.8362 16.1507 26.4513V30.5428L15.5585 29.5379C14.0511 27.4383 11.0722 25.6438 8.07537 23.8493C8.07537 26.236 8.07537 28.6406 9.56483 30.7223C10.9107 32.6065 13.4589 34.2575 16.1507 35.8726V39.1027H19.7398V35.8726C21.0677 35.083 22.3419 34.2755 23.4545 33.432L30.0224 40L32.3015 37.703C21.5343 26.9538 12.7411 18.1427 2.29699 7.69852ZM27.8152 14.428C24.8183 16.2225 21.8394 18.017 20.332 20.1166L19.9551 20.7806L23.3288 24.1364C24.5312 23.2391 25.6079 22.306 26.3257 21.301C27.8152 19.2194 27.8152 16.8147 27.8152 14.428ZM27.8152 23.8493C26.7923 24.4594 25.8053 25.0695 24.8542 25.6976L27.4383 28.2817C27.8152 26.8461 27.8152 25.3387 27.8152 23.8493V23.8493Z" fill="#D8AA35"/>
</svg>
