<svg width="33" height="30" viewBox="0 0 33 30" fill="none" xmlns="http://www.w3.org/2000/svg">
<path d="M15.3246 26.363L15.3217 26.3604C11.0726 22.5073 7.70696 19.4459 5.38027 16.5994C3.07557 13.7798 2 11.4161 2 8.99183C2 5.04701 5.05859 2 8.99183 2C11.2319 2 13.415 3.05317 14.8311 4.70311L16.3488 6.4714L17.8664 4.70311C19.2825 3.05317 21.4656 2 23.7057 2C27.639 2 30.6975 5.04701 30.6975 8.99183C30.6975 11.4161 29.622 13.7798 27.3173 16.5994C24.9906 19.4459 21.625 22.5073 17.3759 26.3604L17.373 26.363L16.3488 27.2954L15.3246 26.363Z" stroke="black" stroke-width="4"/>
</svg>
