<svg width="37" height="40" viewBox="0 0 37 40" xmlns="http://www.w3.org/2000/svg">
<path d="M4.57143 40C3.31429 40 2.23848 39.5528 1.344 38.6583C0.448 37.7623 0 36.6857 0 35.4286V14.8571C0 14.1333 0.162285 13.4476 0.486857 12.8C0.809904 12.1524 1.25714 11.619 1.82857 11.2L15.5429 0.914286C15.9619 0.609524 16.4 0.380952 16.8571 0.228571C17.3143 0.0761903 17.7905 0 18.2857 0C18.781 0 19.2571 0.0761903 19.7143 0.228571C20.1714 0.380952 20.6095 0.609524 21.0286 0.914286L34.7429 11.2C35.3143 11.619 35.7623 12.1524 36.0869 12.8C36.4099 13.4476 36.5714 14.1333 36.5714 14.8571V35.4286C36.5714 36.6857 36.1242 37.7623 35.2297 38.6583C34.3337 39.5528 33.2571 40 32 40H22.8571V24H13.7143V40H4.57143Z"/>
</svg>
