<svg width="31" height="30" viewBox="0 0 31 30" fill="none" xmlns="http://www.w3.org/2000/svg">
<path d="M21.0017 30C19.3267 30 18.0582 29.719 17.1962 29.157C16.3332 28.594 15.6017 28 15.0017 27.375C14.5267 26.875 14.0707 26.4375 13.6337 26.0625C13.1957 25.6875 12.6392 25.5 11.9642 25.5C10.8392 25.5 9.58923 25.3065 8.21423 24.9195C6.83923 24.5315 5.54573 23.8935 4.33373 23.0055C3.12073 22.1185 2.10173 20.9625 1.27673 19.5375C0.451734 18.1125 0.0267345 16.3625 0.00173451 14.2875C-0.0482655 10.1125 0.982734 6.6875 3.09473 4.0125C5.20773 1.3375 8.16424 0 11.9642 0C13.7392 0 15.2392 0.256 16.4642 0.768C17.6892 1.281 18.7457 1.925 19.6337 2.7C20.5207 3.475 21.2702 4.331 21.8822 5.268C22.4952 6.206 23.0767 7.1125 23.6267 7.9875C23.9267 8.4875 24.2267 8.9435 24.5267 9.3555C24.8267 9.7685 25.1517 10.15 25.5017 10.5C27.0017 12 28.1267 13.3125 28.8767 14.4375C29.6267 15.5625 30.0017 17.2625 30.0017 19.5375C30.0017 22.5375 29.0707 25.031 27.2087 27.018C25.3457 29.006 23.2767 30 21.0017 30ZM21.0017 27C22.4267 27 23.7827 26.2935 25.0697 24.8805C26.3577 23.4685 27.0017 21.6875 27.0017 19.5375C27.0017 17.8875 26.7582 16.675 26.2712 15.9C25.7832 15.125 24.8267 14.025 23.4017 12.6C22.8767 12.1 22.4082 11.5435 21.9962 10.9305C21.5832 10.3185 21.1642 9.6875 20.7392 9.0375C19.7142 7.4125 18.6267 6 17.4767 4.8C16.3267 3.6 14.4892 3 11.9642 3C8.73923 3 6.42673 4.156 5.02673 6.468C3.62673 8.781 2.95173 11.375 3.00173 14.25C3.02673 15.925 3.38923 17.3 4.08923 18.375C4.78923 19.45 5.62073 20.294 6.58373 20.907C7.54573 21.519 8.52674 21.9375 9.52674 22.1625C10.5267 22.3875 11.3392 22.5 11.9642 22.5C13.2392 22.5 14.2642 22.8065 15.0392 23.4195C15.8142 24.0315 16.4517 24.6 16.9517 25.125C17.5017 25.7 18.0332 26.1565 18.5462 26.4945C19.0582 26.8315 19.8767 27 21.0017 27ZM15.0017 20.25C16.4517 20.25 17.6892 19.7375 18.7142 18.7125C19.7392 17.6875 20.2517 16.45 20.2517 15C20.2517 13.55 19.7392 12.3125 18.7142 11.2875C17.6892 10.2625 16.4517 9.75 15.0017 9.75C13.5517 9.75 12.3142 10.2625 11.2892 11.2875C10.2642 12.3125 9.75173 13.55 9.75173 15C9.75173 16.45 10.2642 17.6875 11.2892 18.7125C12.3142 19.7375 13.5517 20.25 15.0017 20.25Z" fill="black"/>
</svg>
