<svg width="40" height="40" viewBox="0 0 40 40" fill="none" xmlns="http://www.w3.org/2000/svg">
<path fill-rule="evenodd" clip-rule="evenodd" d="M40 20C40 31.0457 31.0457 40 20 40C8.9543 40 0 31.0457 0 20C0 8.9543 8.9543 0 20 0C31.0457 0 40 8.9543 40 20ZM20.5444 32.9061C20.5128 32.9672 20.4952 32.9987 20.4952 32.9987C20.4952 32.9987 20.3549 32.9892 20.1007 32.9574C19.7138 32.9955 19.4952 32.9987 19.4952 32.9987C19.4952 32.9987 19.4714 32.9502 19.4297 32.8572C16.9117 32.4262 10.54 30.7558 7 24.6244C2.52 16.8648 6.49519 8.75 6.49519 8.75C6.49519 8.75 15.2304 8.87979 19.9904 17.1244C19.992 17.1271 19.9936 17.1299 19.9952 17.1327C19.9968 17.1299 19.9984 17.1271 20 17.1244C24.48 9.36477 33.4952 8.75 33.4952 8.75C33.4952 8.75 37.7504 16.3798 32.9904 24.6244C29.2357 31.1277 23.0076 32.5819 20.5444 32.9061Z" fill="#5AA554"/>
<path d="M19.8971 33.3026L15.9484 26.4632M8.89711 14.25L12.2817 20.1123M12.2817 20.1123L8.2734 19.1697M12.2817 20.1123L13.4695 16.1697M12.2817 20.1123L15.9484 26.4632M15.9484 26.4632L9.51282 24.3164M15.9484 26.4632L17.307 19.8164" stroke="#5AA554" stroke-width="1.5"/>
<path d="M19.8971 33.3026L23.8458 26.4632M30.8971 14.25L27.5125 20.1123M27.5125 20.1123L26.3247 16.1697M27.5125 20.1123L31.5208 19.1697M27.5125 20.1123L23.8458 26.4632M23.8458 26.4632L22.4872 19.8164M23.8458 26.4632L30.2814 24.3164" stroke="#5AA554" stroke-width="1.5"/>
</svg>
