<svg width="40" height="40" viewBox="0 0 40 40" fill="none" xmlns="http://www.w3.org/2000/svg">
<path fill-rule="evenodd" clip-rule="evenodd" d="M20 40C31.0457 40 40 31.0457 40 20C40 8.9543 31.0457 0 20 0C8.9543 0 0 8.9543 0 20C0 31.0457 8.9543 40 20 40ZM20 34C20 34 27.5 29.52 27.5 20C27.5 10.48 20 6 20 6C20 6 12.5 11.04 12.5 20C12.5 28.96 20 34 20 34Z" fill="#5AA554"/>
<path d="M20 34V26.1026M20 12V18.7692M20 18.7692L17 15.9487M20 18.7692L23 15.9487M20 18.7692V26.1026M20 26.1026L15.5 21.0256M20 26.1026L24.5 21.0256" stroke="#5AA554" stroke-width="1.5"/>
</svg>
